<svg xmlns="http://www.w3.org/2000/svg" width="20" height="20" viewBox="0 0 20 20" fill="none">
  <g clip-path="url(#clip0_26_191)">
    <path d="M10 1.6665C6.77501 1.6665 4.16667 4.27484 4.16667 7.49984C4.16667 8.94984 4.58334 10.3082 5.34167 11.5332C6.13334 12.8165 7.17501 13.9165 7.97501 15.1998C8.36667 15.8248 8.65001 16.4082 8.95001 17.0832C9.16667 17.5415 9.34167 18.3332 10 18.3332C10.6583 18.3332 10.8333 17.5415 11.0417 17.0832C11.35 16.4082 11.625 15.8248 12.0167 15.1998C12.8167 13.9248 13.8583 12.8248 14.65 11.5332C15.4167 10.3082 15.8333 8.94984 15.8333 7.49984C15.8333 4.27484 13.225 1.6665 10 1.6665ZM10 9.7915C8.85001 9.7915 7.91667 8.85817 7.91667 7.70817C7.91667 6.55817 8.85001 5.62484 10 5.62484C11.15 5.62484 12.0833 6.55817 12.0833 7.70817C12.0833 8.85817 11.15 9.7915 10 9.7915Z" fill="#333333"/>
  </g>
  <defs>
    <clipPath id="clip0_26_191">
      <rect width="20" height="20" fill="white"/>
    </clipPath>
  </defs>
</svg>