<svg xmlns="http://www.w3.org/2000/svg" width="18" height="19" viewBox="0 0 18 19" fill="none">
  <path d="M10.5 8.00016L8.25 10.2502M15.216 2.77341C15.2872 2.74886 15.3638 2.74481 15.4372 2.76175C15.5105 2.77869 15.5776 2.81592 15.6308 2.8692C15.684 2.92247 15.7212 2.98964 15.738 3.06302C15.7548 3.1364 15.7507 3.21303 15.726 3.28416L11.283 15.9817C11.2564 16.0576 11.2076 16.1237 11.143 16.1716C11.0783 16.2194 11.0008 16.2467 10.9204 16.2499C10.8401 16.2532 10.7606 16.2322 10.6923 16.1897C10.624 16.1472 10.5701 16.0852 10.5375 16.0117L8.12325 10.5802C8.08263 10.4898 8.01032 10.4175 7.92 10.3769L2.4885 7.96191C2.41522 7.9292 2.35344 7.87526 2.31113 7.80707C2.26882 7.73887 2.24793 7.65956 2.25116 7.57937C2.25439 7.49919 2.28159 7.42181 2.32925 7.35725C2.3769 7.29268 2.44283 7.24388 2.5185 7.21716L15.216 2.77341Z" stroke="white" stroke-linecap="round" stroke-linejoin="round"/>
</svg>