<svg xmlns="http://www.w3.org/2000/svg" width="18" height="19" viewBox="0 0 18 19" fill="none">
  <g clip-path="url(#clip0_407_590)">
    <path d="M9.7875 7.84247L7.5 6.12498V12.875L9.7875 11.1575L12 9.49997L9.7875 7.84247ZM9.7875 7.84247L7.5 6.12498V12.875L9.7875 11.1575L12 9.49997L9.7875 7.84247ZM9.7875 7.84247L7.5 6.12498V12.875L9.7875 11.1575L12 9.49997L9.7875 7.84247ZM8.25 3.55248V2.03748C6.7425 2.18748 5.37 2.78748 4.26 3.69498L5.325 4.76748C6.1575 4.12248 7.155 3.68748 8.25 3.55248ZM4.2675 5.82498L3.195 4.75998C2.2875 5.86998 1.6875 7.24248 1.5375 8.74997H3.0525C3.1875 7.65497 3.6225 6.65748 4.2675 5.82498ZM3.0525 10.25H1.5375C1.6875 11.7575 2.2875 13.13 3.195 14.24L4.2675 13.1675C3.6225 12.3425 3.1875 11.345 3.0525 10.25ZM4.26 15.305C5.37 16.2125 6.75 16.8125 8.25 16.9625V15.4475C7.155 15.3125 6.1575 14.8775 5.325 14.2325L4.26 15.305ZM16.5 9.49997C16.5 13.37 13.56 16.565 9.7875 16.9625V15.4475C12.7275 15.0575 15 12.5375 15 9.49997C15 6.46247 12.7275 3.94248 9.7875 3.55248V2.03748C13.56 2.43498 16.5 5.62998 16.5 9.49997Z" fill="white"/>
  </g>
  <defs>
    <clipPath id="clip0_407_590">
      <rect width="18" height="18" fill="white" transform="translate(0 0.5)"/>
    </clipPath>
  </defs>
</svg>